<svg xmlns="http://www.w3.org/2000/svg" fill="none" viewBox="0 0 24 24" id="Headphones-Fill--Streamline-Sharp-Fill-Material" height="24" width="24"><desc>Headphones Fill Streamline Icon: https://streamlinehq.com</desc><path fill="#000000" d="M8.2 21H3V12c0 -1.25 0.2375 -2.42085 0.7125 -3.5125 0.475 -1.09165 1.116665 -2.04165 1.925 -2.85 0.80835 -0.808335 1.75835 -1.45 2.85 -1.925C9.57915 3.2375 10.75 3 12 3s2.42085 0.2375 3.5125 0.7125c1.09165 0.475 2.04165 1.116665 2.85 1.925 0.80835 0.80835 1.45 1.75835 1.925 2.85C20.7625 9.57915 21 10.75 21 12v9H15.8V13.6H19.5V12c0 -2.08935 -0.72765 -3.86165 -2.183 -5.317C15.86165 5.22765 14.08935 4.5 12 4.5s-3.86165 0.72765 -5.317 2.183C5.22765 8.13835 4.5 9.91065 4.5 12v1.6h3.7V21Z" stroke-width="0.5"></path></svg>