<svg xmlns="http://www.w3.org/2000/svg" fill="none" viewBox="0 0 24 24" id="Volume-Up-Fill--Streamline-Sharp-Fill-Material" height="24" width="24"><desc>Volume Up Fill Streamline Icon: https://streamlinehq.com</desc><path fill="#000000" d="M14 20.725v-1.55c1.61665 -0.4667 2.9375 -1.3625 3.9625 -2.6875S19.5 13.6583 19.5 11.975c0 -1.68335 -0.50835 -3.1917 -1.525 -4.525 -1.01665 -1.33335 -2.34165 -2.225 -3.975 -2.675025v-1.55c2.06665 0.466665 3.75 1.5125 5.05 3.137525 1.3 1.625 1.95 3.4958 1.95 5.6125 0 2.11665 -0.65 3.9875 -1.95 5.6125 -1.3 1.625 -2.98335 2.6708 -5.05 3.1375ZM3 15V9h4L12 3.999975V20L7 15H3Zm10.5 1.2V7.775c0.91665 0.2833 1.64585 0.81665 2.1875 1.6C16.22915 10.1583 16.5 11.0333 16.5 12c0 0.95 -0.275 1.81665 -0.825 2.6 -0.55 0.7833 -1.275 1.31665 -2.175 1.6Z" stroke-width="0.5"></path></svg>